<?xml version="1.0" encoding="UTF-8"?>
<svg id="_레이어_2" data-name="레이어 2" xmlns="http://www.w3.org/2000/svg" xmlns:xlink="http://www.w3.org/1999/xlink" viewBox="0 0 293.71 200.39">
  <defs>
    <style>
      .cls-1 {
        fill: url(#_무제_그라디언트_15);
      }

      .cls-2 {
        fill: url(#_무제_그라디언트_13);
      }

      .cls-3 {
        fill: url(#_무제_그라디언트_10);
        opacity: .6;
      }

      .cls-4 {
        fill: #fff;
      }

      .cls-5 {
        fill: url(#_무제_그라디언트_17);
      }

      .cls-6 {
        fill: url(#_무제_그라디언트_17-3);
      }

      .cls-7 {
        fill: url(#_무제_그라디언트_6);
      }

      .cls-8 {
        fill: url(#_무제_그라디언트_17-4);
      }

      .cls-9 {
        fill: url(#_무제_그라디언트_17-2);
      }
    </style>
    <linearGradient id="_무제_그라디언트_13" data-name="무제 그라디언트 13" x1="328.15" y1="168.58" x2="-3.67" y2="75.71" gradientUnits="userSpaceOnUse">
      <stop offset="0" stop-color="#f7d4ff"/>
      <stop offset=".29" stop-color="#d969ed"/>
      <stop offset=".6" stop-color="#8b0d81"/>
      <stop offset=".86" stop-color="#3d003c"/>
    </linearGradient>
    <linearGradient id="_무제_그라디언트_15" data-name="무제 그라디언트 15" x1="-47.73" y1="52.11" x2="275.75" y2="184.63" gradientUnits="userSpaceOnUse">
      <stop offset=".18" stop-color="#f7d4ff"/>
      <stop offset=".32" stop-color="#d969ed"/>
      <stop offset=".52" stop-color="#8b0d81"/>
      <stop offset=".88" stop-color="#3d003c"/>
    </linearGradient>
    <linearGradient id="_무제_그라디언트_17" data-name="무제 그라디언트 17" x1="134.84" y1="-856.67" x2="265.89" y2="-853.98" gradientTransform="translate(-431.01 772.87) rotate(25.08)" gradientUnits="userSpaceOnUse">
      <stop offset=".1" stop-color="#f7d4ff"/>
      <stop offset=".3" stop-color="#d969ed"/>
      <stop offset=".6" stop-color="#8b0d81"/>
      <stop offset=".86" stop-color="#3d003c"/>
    </linearGradient>
    <linearGradient id="_무제_그라디언트_17-2" data-name="무제 그라디언트 17" x1="193.24" y1="-801.67" x2="307.77" y2="-801.67" xlink:href="#_무제_그라디언트_17"/>
    <linearGradient id="_무제_그라디언트_17-3" data-name="무제 그라디언트 17" x1="247.53" y1="-855.53" x2="156.28" y2="-542.87" xlink:href="#_무제_그라디언트_17"/>
    <linearGradient id="_무제_그라디언트_17-4" data-name="무제 그라디언트 17" x1="238.82" y1="-830.01" x2="291.16" y2="-1005.35" xlink:href="#_무제_그라디언트_17"/>
    <linearGradient id="_무제_그라디언트_6" data-name="무제 그라디언트 6" x1="244.16" y1="-823.28" x2="244.16" y2="-906.55" gradientTransform="translate(-431.01 772.87) rotate(25.08)" gradientUnits="userSpaceOnUse">
      <stop offset="0" stop-color="#e699f5"/>
      <stop offset="1" stop-color="#d564e8"/>
    </linearGradient>
    <linearGradient id="_무제_그라디언트_10" data-name="무제 그라디언트 10" x1="184.79" y1="165.45" x2="155.92" y2="74.28" gradientTransform="translate(-9.5 23.72) rotate(-3.23)" gradientUnits="userSpaceOnUse">
      <stop offset=".29" stop-color="#f0f1f3"/>
      <stop offset="1" stop-color="#f0f1f3" stop-opacity="0"/>
    </linearGradient>
  </defs>
  <g id="_레이어_1-2" data-name="레이어 1">
    <g>
      <g>
        <path class="cls-4" d="M62.55,156.35c-24.02-15.05-40.08-46.48-23.97-72.86,20.64-33.81,84.48-46.69,98.05-49.71C83.61,42.02,3.19,64.17,1.5,125.62c-.89,32.4,29.81,54.68,57.63,63.81,82.97,27.23,193.55-6.49,233.34-67.51-11.73,17.99-143.28,88.71-229.92,34.43Z"/>
        <path d="M121.93,200.39c-21.88,0-43.44-3.05-63.27-9.55C31.03,181.77-.91,159.24.02,125.58c.76-27.73,17.28-50.32,49.11-67.15,22.31-11.8,51.68-20.59,87.28-26.12l.55,2.9-1.72.38c-50.33,11.04-82.42,27.41-95.39,48.66-15.51,25.41-.24,55.97,23.49,70.84h0c45.93,28.78,102.49,21.17,141.85,9.72,46.62-13.56,80.8-35.66,86.04-43.71l2.48,1.62c-30.98,47.51-102.96,77.66-171.78,77.66ZM92.17,44.82c-15.85,4.52-29.78,9.94-41.67,16.23C19.7,77.34,3.71,99.08,2.97,125.66c-.88,32.03,29.95,53.61,56.61,62.36,75.76,24.86,177.18-1.38,222.91-55.24-15.51,10.94-44.2,25.48-76.48,34.87-39.94,11.62-97.39,19.3-144.25-10.05-24.95-15.63-40.91-47.92-24.45-74.89,9.23-15.12,27.61-27.8,54.85-37.9Z"/>
      </g>
      <g>
        <path class="cls-2" d="M20.04,104.55c-7.74,29.6,14.95,56.1,40.8,68.34,85.04,40.26,205.87-11.46,231.63-50.97-11.73,17.99-143.28,88.71-229.92,34.43-24.02-15.05-40.08-46.48-23.97-72.86,20.64-33.81,84.48-46.69,98.05-49.71-33.3,5.63-104.21,23.45-116.6,70.78Z"/>
        <path class="cls-1" d="M60.84,172.89c-25.85-12.24-48.54-38.73-40.8-68.34,12.38-47.33,83.3-65.15,116.6-70.78C83.61,42.02,3.19,64.17,1.5,125.62c-.89,32.4,29.81,54.68,57.63,63.81,82.97,27.23,193.55-6.49,233.34-67.51-25.76,39.51-146.59,91.23-231.63,50.97Z"/>
      </g>
      <g>
        <g>
          <polygon class="cls-4" points="254.2 4.93 90.59 84.3 136.97 106 53.89 192.65 217.49 113.28 171.12 91.58 254.2 4.93"/>
          <path d="M47.12,197.58l87.36-91.11-47.32-22.14L260.97,0l-87.36,91.11,47.32,22.14L47.12,197.58ZM94.03,84.28l45.43,21.26-78.8,82.19,153.4-74.42-45.43-21.26L247.42,9.86,94.03,84.28Z"/>
        </g>
        <g>
          <polygon class="cls-5" points="147.62 87.94 104.54 84.2 90.59 84.3 136.97 106 147.09 104.11 147.62 87.94"/>
          <polygon class="cls-9" points="160.1 121.77 81.39 172.64 53.89 192.65 217.49 113.28 203.54 113.38 160.1 121.77"/>
          <g>
            <g>
              <polygon class="cls-4" points="158.08 92.1 163.38 78.87 160.65 81.2 163.38 78.87 163.5 78.58 163.38 78.87 226.7 24.94 254.2 4.93 90.59 84.3 104.54 84.2 147.62 87.94 147.43 93.84 161 93.47 158.08 92.1"/>
              <g>
                <polygon class="cls-6" points="136.97 106 53.89 192.65 81.39 172.64 160.1 121.77 162.64 121.28 147.09 104.11 136.97 106"/>
                <polygon class="cls-4" points="217.49 113.28 171.12 91.58 161 93.47 174.7 95.51 161 93.47 147.43 93.84 147.09 104.11 162.64 121.28 203.54 113.38 217.49 113.28"/>
              </g>
            </g>
            <polygon class="cls-8" points="163.38 78.87 158.08 92.1 161 93.47 171.12 91.58 254.2 4.93 226.7 24.94 163.38 78.87"/>
          </g>
          <polygon class="cls-7" points="147.09 104.11 104.54 84.2 226.7 24.94 161 93.47 203.54 113.38 81.39 172.64 147.09 104.11"/>
          <polygon class="cls-3" points="147.09 104.11 104.54 84.2 226.7 24.94 161 93.47 203.54 113.38 81.39 172.64 147.09 104.11"/>
        </g>
      </g>
    </g>
  </g>
</svg>